<!-- Generator: Adobe Illustrator 19.0.0, SVG Export Plug-In  -->
<svg version="1.0"
	 xmlns="http://www.w3.org/2000/svg" xmlns:xlink="http://www.w3.org/1999/xlink" xmlns:a="http://ns.adobe.com/AdobeSVGViewerExtensions/3.0/"
	 x="0px" y="0px" width="25.1px" height="37.6px" viewBox="0 0 25.1 37.6" style="enable-background:new 0 0 25.1 37.6;"
	 xml:space="preserve">
<style type="text/css">
	.st0{fill:#082158;stroke:#FFFFFF;stroke-width:0.75;stroke-miterlimit:10;}
	.st1{fill:#082158;stroke:#FFFFFF;stroke-width:0.75;stroke-linecap:round;stroke-linejoin:round;stroke-miterlimit:10;}
	
		.st2{fill-rule:evenodd;clip-rule:evenodd;fill:#082158;stroke:#FFFFFF;stroke-width:0.5;stroke-linecap:round;stroke-linejoin:round;stroke-miterlimit:10;}
	
		.st3{opacity:0.8;fill-rule:evenodd;clip-rule:evenodd;fill:#082158;stroke:#082158;stroke-linecap:round;stroke-linejoin:round;stroke-miterlimit:10;}
	
		.st4{opacity:0.1;fill-rule:evenodd;clip-rule:evenodd;fill:#082158;stroke:#082158;stroke-linecap:round;stroke-linejoin:round;stroke-miterlimit:10;}
	.st5{fill:#EFEFEF;}
	.st6{fill:#082158;}
	.st7{fill:#FFFFFF;}
	.st8{fill:#0B2E44;}
	.st9{opacity:0.7;fill:#FFFFFF;}
	.st10{opacity:0.7;}
	.st11{fill:#19475E;}
</style>
<defs>
</defs>
<g id="Acces_1_">
	<path id="XMLID_44_" class="st0" d="M14.2,16h6.4l2.8,6.4v14.8H12v-2.7c0,0-3.2-3.8-2.9-6.8c0,0-2.7-0.3,2.2-0.3
		c4.9-0.1,5.3-2.7,7.9-4.2l-0.9-3.1C18.2,20.1,14.3,20.2,14.2,16z"/>
	<path id="XMLID_43_" class="st1" d="M5.7,12c-0.3,0.6-1.3,0.7-2.1,0.2l-2.2-1.3c-0.8-0.5-1.2-1.4-0.9-2l0.2-0.4
		C1.1,7.9,2,7.9,2.9,8.4l2.2,1.3c0.8,0.5,1.2,1.4,0.9,2L5.7,12z"/>
	<g id="Phone_1_">
		<path id="XMLID_42_" class="st2" d="M20.9,27.6c0,0.5-0.4,1-1,1H5.6c-0.5,0-1-0.4-1-1V1.2c0-0.5,0.4-1,1-1h14.3c0.5,0,1,0.4,1,1
			V27.6z"/>
		<rect id="XMLID_41_" x="6.1" y="3.6" class="st3" width="13.3" height="19.3"/>
		<polygon id="XMLID_40_" class="st4" points="19.4,3.6 19.1,3.6 6.1,22.1 6.1,22.9 19.4,22.9 		"/>
	</g>
	<g id="XMLID_36_">
		<rect id="XMLID_39_" x="6.1" y="3.6" class="st5" width="13.3" height="19.3"/>
		<rect id="XMLID_38_" x="6.1" y="8.8" class="st6" width="13.3" height="4.9"/>
		<circle id="XMLID_37_" class="st7" cx="12.7" cy="11.2" r="2.3"/>
	</g>
	<path id="XMLID_35_" class="st0" d="M24.7,22.4L22,16h-6.4c0.1,4.2,4,4.1,4,4.1l0.9,3.1c-2.7,1.5-3.2,5.4-3.2,5.4s-0.9,5.4,2.5,8.6
		h4.9V22.4z"/>
	<g id="XMLID_33_">
		<path id="XMLID_34_" class="st1" d="M5.7,16.4C5.4,17,4.6,17.2,4,16.8l-1.6-0.9c-0.6-0.3-0.8-1.1-0.4-1.7l0.2-0.4
			c0.3-0.6,1.1-0.8,1.7-0.4l1.6,0.9c0.6,0.3,0.8,1.1,0.4,1.7L5.7,16.4z"/>
	</g>
	<g id="XMLID_31_">
		<path id="XMLID_32_" class="st1" d="M5.7,20.5c-0.3,0.6-1.1,0.8-1.7,0.4L2.5,20c-0.6-0.3-0.8-1.1-0.4-1.7L2.3,18
			c0.3-0.6,1.1-0.8,1.7-0.4l1.6,0.9c0.6,0.3,0.8,1.1,0.4,1.7L5.7,20.5z"/>
	</g>
	<g id="XMLID_29_">
		<path id="XMLID_30_" class="st1" d="M5.4,24.3c-0.3,0.5-0.9,0.6-1.4,0.4l-1.3-0.8c-0.5-0.3-0.6-0.9-0.4-1.4l0.2-0.3
			c0.3-0.5,0.9-0.6,1.4-0.4l1.3,0.8c0.5,0.3,0.6,0.9,0.4,1.4L5.4,24.3z"/>
	</g>
	<g id="XMLID_15_">
		<path id="XMLID_28_" class="st8" d="M11.2,10.8v1c0,0.4,0.3,0.7,0.7,0.7h1.7c0.4,0,0.7-0.3,0.7-0.7v-1H11.2z"/>
		<path id="XMLID_27_" class="st9" d="M11.5,12C11.5,12.1,11.5,12.1,11.5,12L11.5,12c-0.1,0.1-0.1,0-0.1,0v-1c0,0,0-0.1,0.1-0.1l0,0
			c0,0,0.1,0,0.1,0.1V12z"/>
		<path id="XMLID_26_" class="st10" d="M11.7,12C11.7,12.1,11.7,12.1,11.7,12L11.7,12c-0.1,0.1-0.1,0-0.1,0v-1c0,0,0-0.1,0.1-0.1
			l0,0c0,0,0.1,0,0.1,0.1V12z"/>
		<path id="XMLID_25_" class="st10" d="M12.3,12C12.3,12.1,12.2,12.1,12.3,12L12.3,12c-0.1,0.1-0.1,0-0.1,0v-1c0,0,0-0.1,0.1-0.1
			l0,0c0,0,0.1,0,0.1,0.1V12z"/>
		<path id="XMLID_24_" class="st10" d="M12.8,12C12.8,12.1,12.8,12.1,12.8,12L12.8,12c-0.1,0.1-0.1,0-0.1,0v-1c0,0,0-0.1,0.1-0.1
			l0,0c0,0,0.1,0,0.1,0.1V12z"/>
		<path id="XMLID_23_" class="st10" d="M13.4,12C13.4,12.1,13.4,12.1,13.4,12L13.4,12c-0.1,0.1-0.1,0-0.1,0v-1c0,0,0-0.1,0.1-0.1
			l0,0c0,0,0.1,0,0.1,0.1V12z"/>
		<path id="XMLID_22_" class="st10" d="M14,12C14,12.1,14,12.1,14,12L14,12c-0.1,0.1-0.1,0-0.1,0v-1c0,0,0-0.1,0.1-0.1l0,0
			c0,0,0.1,0,0.1,0.1V12z"/>
		<path id="XMLID_21_" class="st9" d="M12.1,12C12.1,12.1,12.1,12.1,12.1,12L12.1,12c-0.1,0.1-0.1,0-0.1,0v-1c0,0,0-0.1,0.1-0.1l0,0
			c0,0,0.1,0,0.1,0.1V12z"/>
		<path id="XMLID_20_" class="st9" d="M12.7,12C12.7,12.1,12.6,12.1,12.7,12L12.7,12c-0.1,0.1-0.1,0-0.1,0v-1c0,0,0-0.1,0.1-0.1l0,0
			c0,0,0.1,0,0.1,0.1V12z"/>
		<path id="XMLID_19_" class="st9" d="M13.3,12C13.3,12.1,13.2,12.1,13.3,12L13.3,12c-0.1,0.1-0.1,0-0.1,0v-1c0,0,0-0.1,0.1-0.1l0,0
			c0,0,0.1,0,0.1,0.1V12z"/>
		<path id="XMLID_18_" class="st9" d="M13.9,12C13.9,12.1,13.8,12.1,13.9,12L13.9,12c-0.1,0.1-0.1,0-0.1,0v-1c0,0,0-0.1,0.1-0.1l0,0
			c0,0,0.1,0,0.1,0.1V12z"/>
		<path id="XMLID_17_" class="st11" d="M14.5,10.6c0,0.1-0.1,0.2-0.2,0.2h-3.2c-0.1,0-0.2-0.1-0.2-0.2l0,0c0-0.1,0.1-0.2,0.2-0.2
			h3.2C14.4,10.4,14.5,10.5,14.5,10.6L14.5,10.6z"/>
		<path id="XMLID_16_" class="st8" d="M14,10.1c0,0.1,0,0.1-0.1,0.2l-2.3,0.5c-0.1,0-0.1,0-0.2-0.1l0,0c0-0.1,0-0.1,0.1-0.2l2.3-0.5
			C13.9,9.9,14,10,14,10.1L14,10.1z"/>
	</g>
</g>
</svg>
