<!-- Generator: Adobe Illustrator 19.0.0, SVG Export Plug-In  -->
<svg version="1.0"
	 xmlns="http://www.w3.org/2000/svg" xmlns:xlink="http://www.w3.org/1999/xlink" xmlns:a="http://ns.adobe.com/AdobeSVGViewerExtensions/3.0/"
	 x="0px" y="0px" width="44.7px" height="43.4px" viewBox="0 0 44.7 43.4" style="enable-background:new 0 0 44.7 43.4;"
	 xml:space="preserve">
<style type="text/css">
	.st0{fill:#082158;stroke:#082158;stroke-miterlimit:10;}
	.st1{fill:#FAFBFC;stroke:#082158;stroke-miterlimit:10;}
	.st2{fill:#082158;}
</style>
<defs>
</defs>
<g id="XMLID_15_">
	<g id="XMLID_31_">
		<g id="XMLID_32_">
			<path id="XMLID_34_" class="st0" d="M23.2,9.3c-0.4,1.1-2,1.2-2,1.2s-1.6-0.1-2-1.2c0,0-3.8,0.9-4.1,4.6c0,0,1.5,3,6.1,3.3
				c4.6-0.3,6.1-3.3,6.1-3.3C27,10.2,23.2,9.3,23.2,9.3z"/>
			<circle id="XMLID_33_" class="st0" cx="21.3" cy="4.6" r="4.1"/>
		</g>
	</g>
	<g id="XMLID_27_">
		<g id="XMLID_28_">
			<path id="XMLID_30_" class="st0" d="M8.7,35c-0.4,1.1-2,1.2-2,1.2S5,36.1,4.6,35c0,0-3.8,0.9-4.1,4.6c0,0,1.5,3,6.1,3.3
				c4.6-0.3,6.1-3.3,6.1-3.3C12.5,35.9,8.7,35,8.7,35z"/>
			<circle id="XMLID_29_" class="st0" cx="6.7" cy="30.3" r="4.1"/>
		</g>
	</g>
	<g id="XMLID_23_">
		<g id="XMLID_24_">
			<path id="XMLID_26_" class="st0" d="M40.1,34.4c-0.4,1.1-2,1.2-2,1.2s-1.6-0.1-2-1.2c0,0-3.8,0.9-4.1,4.6c0,0,1.5,3,6.1,3.3
				c4.6-0.3,6.1-3.3,6.1-3.3C43.9,35.3,40.1,34.4,40.1,34.4z"/>
			<circle id="XMLID_25_" class="st0" cx="38.1" cy="29.7" r="4.1"/>
		</g>
	</g>
	<line id="XMLID_22_" class="st1" x1="30.2" y1="16.3" x2="35.4" y2="23.2"/>
	<line id="XMLID_21_" class="st1" x1="12.3" y1="16.3" x2="7.1" y2="23.2"/>
	<line id="XMLID_20_" class="st1" x1="15.9" y1="40.1" x2="28.9" y2="40.1"/>
	<path id="XMLID_16_" class="st2" d="M22.6,21.3c-3.5,0-6.3,2.8-6.3,6.3s2.8,6.3,6.3,6.3s6.3-2.8,6.3-6.3S26,21.3,22.6,21.3z
		 M22.7,33.1c-3.1,0-5.5-2.5-5.5-5.5c0-2.8,2-5.1,4.7-5.5C20,23,18.7,25,18.7,27.2c0,3.1,2.5,5.6,5.6,5.7
		C23.8,33,23.2,33.1,22.7,33.1z M25.8,29.4c-1,0-1.8-0.8-1.8-1.8c0-1,0.8-1.8,1.8-1.8c1,0,1.8,0.8,1.8,1.8
		C27.6,28.6,26.8,29.4,25.8,29.4z"/>
</g>
</svg>
