<!-- Generator: Adobe Illustrator 19.0.0, SVG Export Plug-In  -->
<svg version="1.0"
	 xmlns="http://www.w3.org/2000/svg" xmlns:xlink="http://www.w3.org/1999/xlink" xmlns:a="http://ns.adobe.com/AdobeSVGViewerExtensions/3.0/"
	 x="0px" y="0px" width="38.5px" height="29.1px" viewBox="0 0 38.5 29.1" style="enable-background:new 0 0 38.5 29.1;"
	 xml:space="preserve">
<style type="text/css">
	.st0{fill:#082158;stroke:#082158;stroke-miterlimit:10;}
</style>
<defs>
</defs>
<path id="XMLID_15_" class="st0" d="M5.2,0.5L0.9,6.2C0.2,7.3,0.5,8.8,1.5,9.5c0.4,0.3,0.9,0.4,1.3,0.4l0,0c0.8,0,1.5-0.4,2-1
	l0.5-0.8c0.3,1,1.1,1.8,2.2,1.8c1.3,0,2.3-1,2.3-2.3c0,1.3,1,2.3,2.3,2.3c1.3,0,2.3-1,2.3-2.3c0,1.3,1,2.3,2.3,2.3
	c1.3,0,2.3-1,2.3-2.3c0,1.3,1,2.3,2.3,2.3c1.3,0,2.3-1,2.3-2.3c0,1.3,1,2.3,2.3,2.3c1.3,0,2.3-1,2.3-2.3c0,1.3,1,2.3,2.3,2.3
	c1.1,0,2-0.8,2.2-1.8l0.5,0.8c0.5,0.7,1.2,1,2,1c0.4,0,0.9-0.1,1.3-0.4c1.1-0.7,1.4-2.2,0.7-3.3l-4.3-5.7H5.2z M38,28.6H0.5
	c0-1.9,1.6-3.5,3.5-3.5h30.5C36.4,25.1,38,26.7,38,28.6L38,28.6z M7.5,11.1H5.2V24h28.1V11.1H7.5z M7.5,21.6v-8.2h7v8.2H7.5z
	 M16.9,21.6v-8.2H31v8.2H16.9z M11.1,16.9c0,0.6-0.5,1.2-1.2,1.2c-0.6,0-1.2-0.5-1.2-1.2c0-0.6,0.5-1.2,1.2-1.2
	C10.5,15.7,11.1,16.3,11.1,16.9L11.1,16.9z"/>
</svg>
