<!-- Generator: Adobe Illustrator 19.0.0, SVG Export Plug-In  -->
<svg version="1.0"
	 xmlns="http://www.w3.org/2000/svg" xmlns:xlink="http://www.w3.org/1999/xlink" xmlns:a="http://ns.adobe.com/AdobeSVGViewerExtensions/3.0/"
	 x="0px" y="0px" width="38.3px" height="33.8px" viewBox="0 0 38.3 33.8" style="enable-background:new 0 0 38.3 33.8;"
	 xml:space="preserve">
<style type="text/css">
	.st0{fill:#082158;stroke:#082158;stroke-miterlimit:10;}
</style>
<defs>
</defs>
<g id="XMLID_15_">
	<g id="XMLID_24_">
		<g id="XMLID_25_">
			<path id="XMLID_27_" class="st0" d="M23.2,17.7c-0.8,2.1-4,2.4-4,2.4s-3.2-0.2-4.1-2.3c0,0-7.4,1.9-8,9.1c0,0,3.1,5.9,12.2,6.4
				c9.1-0.7,12-6.7,12-6.7C30.7,19.5,23.2,17.7,23.2,17.7z"/>
			<circle id="XMLID_26_" class="st0" cx="19.2" cy="8.5" r="8"/>
		</g>
	</g>
	<g id="XMLID_20_">
		<g id="XMLID_21_">
			<path id="XMLID_23_" class="st0" d="M34.2,12.6c-0.3,0.9-1.8,1-1.8,1s-1.4-0.1-1.8-1c0,0-3.3,0.8-3.5,4c0,0,1.4,2.6,5.4,2.8
				c4-0.3,5.3-2.9,5.3-2.9C37.5,13.3,34.2,12.6,34.2,12.6z"/>
			<circle id="XMLID_22_" class="st0" cx="32.4" cy="8.5" r="3.5"/>
		</g>
	</g>
	<g id="XMLID_16_">
		<g id="XMLID_17_">
			<path id="XMLID_19_" class="st0" d="M7.6,12.9c-0.3,0.9-1.8,1-1.8,1s-1.4-0.1-1.8-1c0,0-3.3,0.8-3.5,4c0,0,1.4,2.6,5.4,2.8
				c4-0.3,5.3-2.9,5.3-2.9C10.9,13.6,7.6,12.9,7.6,12.9z"/>
			<circle id="XMLID_18_" class="st0" cx="5.8" cy="8.8" r="3.5"/>
		</g>
	</g>
</g>
</svg>
