<!-- Generator: Adobe Illustrator 19.0.0, SVG Export Plug-In  -->
<svg version="1.0"
	 xmlns="http://www.w3.org/2000/svg" xmlns:xlink="http://www.w3.org/1999/xlink" xmlns:a="http://ns.adobe.com/AdobeSVGViewerExtensions/3.0/"
	 x="0px" y="0px" width="37.7px" height="27.6px" viewBox="0 0 37.7 27.6" style="enable-background:new 0 0 37.7 27.6;"
	 xml:space="preserve">
<style type="text/css">
	.st0{fill:#082158;stroke:#082158;stroke-miterlimit:10;}
	.st1{fill:#082158;stroke:#082158;stroke-width:0.25;stroke-miterlimit:10;}
</style>
<defs>
</defs>
<g id="XMLID_15_">
	<path id="XMLID_18_" class="st0" d="M37.1,3.8c0,0-4.4,1.1-5.7,1.3C30.9,5.2,30,4.9,30,4.9L25.1,1c-0.1-0.1-0.2-0.1-0.3-0.2l0,0
		l0,0c-0.6-0.4-1.7-0.3-2.3,0.1l-7.9,4.5c-0.2,0.1-2.3,0.9-2.3,2.5c0,1.2,0.9,2.1,2.1,2.1c0.6,0,2.1-0.7,2.3-0.9l3.9-2.2
		c0,0,1.3-0.7,2.2,0.2c0.9,0.9,8.4,8.4,9.6,8.6c1,0.2,4.8-0.9,4.8-0.9L37.1,3.8z"/>
	<path id="XMLID_17_" class="st0" d="M14.9,23.1c-0.6-0.6-1.6-0.6-2.5-0.1c0.5-0.9,0.5-1.9-0.1-2.5c-0.5-0.5-1.4-0.6-2.2-0.2
		c0.4-0.8,0.3-1.7-0.3-2.2c-0.6-0.6-1.5-0.6-2.3-0.2c0.4-0.8,0.4-1.8-0.2-2.3c-0.8-0.8-2.2-0.6-3.1,0.4c-1,1-1.1,2.4-0.4,3.2
		c0.6,0.6,1.5,0.6,2.3,0.2c-0.4,0.8-0.4,1.8,0.2,2.3c0.5,0.5,1.4,0.6,2.2,0.2c-0.4,0.8-0.3,1.7,0.3,2.2c0.6,0.6,1.6,0.6,2.5,0.1
		c-0.5,0.9-0.5,1.9,0.1,2.5c0.8,0.8,2.2,0.6,3.1-0.4C15.5,25.2,15.6,23.8,14.9,23.1z"/>
	<path id="XMLID_16_" class="st1" d="M29.3,17L29.3,17l-2.8-2.7l-3.6-3.6c-1.6-2.4-3.6-1-3.6-1l-3.3,1.5c0,0-1.4,0.6-2.5,0.3
		c-3.1-0.9-3-3.7-2.6-4.6c0.3-0.7,1-1.8,2.9-2.8c0.6-0.3,3.5-2,3.5-2c-3.1-3.6-9.9,1.7-9.9,1.7C6.2,4.5,4.6,4.1,4.6,4.1
		C3.2,3.8,0.1,2.5,0.1,2.5v12.9L2.2,16c0,0,0,0,0,0c0.2-0.7,0.5-1.3,1.1-1.8c1.6-1.5,4.1-1.4,5.6,0.2c0.4,0.4,0.7,1,0.9,1.5
		c0.6,0.1,1.2,0.3,1.6,0.8c0.4,0.5,0.7,1,0.7,1.7c0.6,0.1,1.2,0.5,1.7,1c0.4,0.5,0.7,1,0.8,1.6c0.6,0.2,1.2,0.5,1.7,1
		c0.9,0.9,1.1,2.2,0.8,3.4l0.7,0.7l0,0c0.3,0.3,0.7,0.5,1.1,0.5c0.8,0,1.5-0.7,1.5-1.5c0-0.5-0.2-0.9-0.5-1.1l0,0l-2.6-2.6
		c-0.5-0.8,0.1-0.8,0.1-0.8l3.8,3.7l0,0c0.3,0.3,0.7,0.5,1.1,0.5c0.8,0,1.5-0.7,1.5-1.5c0-0.5-0.2-0.9-0.5-1.1l0,0l-3.3-3.3
		c-0.1-0.8,0.5-0.5,0.5-0.5l0.8,0.8l3,3l0,0c0.3,0.3,0.7,0.5,1.1,0.5c0.8,0,1.5-0.7,1.5-1.5c0-0.5-0.2-0.9-0.5-1.1l0,0l-3.3-3.2
		c-0.1-0.6,0.2-0.7,0.4-0.7l3.4,3.4l0,0c0.3,0.3,0.7,0.5,1.1,0.5c0.8,0,1.5-0.7,1.5-1.5C29.8,17.7,29.6,17.2,29.3,17z"/>
</g>
</svg>
