<!-- Generator: Adobe Illustrator 19.0.0, SVG Export Plug-In  -->
<svg version="1.0"
	 xmlns="http://www.w3.org/2000/svg" xmlns:xlink="http://www.w3.org/1999/xlink" xmlns:a="http://ns.adobe.com/AdobeSVGViewerExtensions/3.0/"
	 x="0px" y="0px" width="336.3px" height="339.2px" viewBox="0 0 336.3 339.2" style="enable-background:new 0 0 336.3 339.2;"
	 xml:space="preserve">
<style type="text/css">
	.st0{fill:#33B6BC;}
</style>
<defs>
</defs>
<path id="XMLID_33_" class="st0" d="M265.8,295c-1.8,23.4-24,44.2-48.6,44.2s-47.2-21.1-47.6-45.5c-0.1-3.6,0.6-10.4,0.6-10.4
	s27.1-8.5,35.7-12.8c11-5.5,34.7-22.1,34.7-22.1s5.7,3.3,10.6,7.5c3.1,2.7,5.4,5.9,7,8.3C262.9,271.3,266.5,285.9,265.8,295z
	 M252.7,269.3c-1.4-2-3.3-4.8-6-7.1c-4.1-3.6-9.1-6.5-9.1-6.5s-20.3,14.3-29.7,19c-7.3,3.7-30.6,11-30.6,11s-0.6,5.9-0.5,8.9
	c0.3,20.9,19.7,39,40.8,39s40.1-17.9,41.7-37.9C259.9,287.9,256.8,275.3,252.7,269.3z"/>
<path id="XMLID_30_" class="st0" d="M321.9,172.5c17.1,16,19.6,46.3,4.2,65.6c-15.4,19.2-45.9,23.7-65.3,8.8c-2.8-2.2-7.7-7-7.7-7
	s10.3-26.5,12.3-35.9c2.6-12.1,4.4-40.9,4.4-40.9s6.2-2.4,12.5-3.5c4-0.7,8-0.5,10.8-0.3C301.5,159.9,315.2,166.2,321.9,172.5z
	 M293.6,166.6c-2.5-0.2-5.8-0.4-9.3,0.2c-5.4,1-10.7,3-10.7,3s-1.5,24.7-3.7,35.1c-1.7,8-10.5,30.8-10.5,30.8s4.2,4.1,6.6,6
	c16.6,12.8,42.8,9,56-7.5s11.1-42.5-3.6-56.2C312.7,172.6,300.9,167.2,293.6,166.6z"/>
<path id="XMLID_27_" class="st0" d="M259.8,55.2c23.3-2.7,48,15.1,52.7,39.3s-11.7,50.4-35.6,55.4c-3.5,0.7-10.4,1.4-10.4,1.4
	s-13.5-25-19.4-32.6c-7.5-9.8-28.3-29.8-28.3-29.8s2.2-6.3,5.4-11.8c2.1-3.6,4.8-6.4,6.8-8.4C237,62.6,250.7,56.2,259.8,55.2z
	 M237,73c-1.7,1.7-4.1,4.2-5.8,7.2c-2.7,4.7-4.6,10.1-4.6,10.1s17.9,17.2,24.3,25.6c5,6.5,16.6,27.9,16.6,27.9s5.9-0.5,8.9-1.2
	c20.5-4.3,34.5-26.8,30.5-47.5c-4-20.7-25.2-36-45.2-33.7C253.9,62.3,242.2,67.7,237,73z"/>
<path id="XMLID_24_" class="st0" d="M132.4,20.7c13-19.5,42.5-26.9,64-14.9s31,41.4,19.4,62.9c-1.7,3.2-5.6,8.8-5.6,8.8
	s-27.8-5.8-37.4-6.2c-12.3-0.6-41.1,2.4-41.1,2.4s-3.4-5.7-5.5-11.7c-1.4-3.9-1.8-7.8-2-10.6C123.4,42.9,127.3,28.3,132.4,20.7z
	 M131.3,49.6c0.2,2.4,0.6,5.8,1.8,9.1c1.9,5.2,4.8,10.1,4.8,10.1s24.6-2.6,35.2-2.1c8.2,0.4,32.1,5.3,32.1,5.3s3.4-4.8,4.8-7.5
	c9.9-18.4,1.8-43.7-16.6-54s-43.8-4-54.9,12.8C134.1,29.8,130.6,42.3,131.3,49.6z"/>
<path id="XMLID_21_" class="st0" d="M24.2,109.1c-8.5-21.8,2.5-50.2,24.7-60.9s51.7-1.4,62.6,20.4c1.6,3.2,3.9,9.7,3.9,9.7
	s-20.7,19.4-26.6,27c-7.6,9.7-21.7,34.9-21.7,34.9s-6.6-0.5-12.8-2.2c-4-1.1-7.4-3-9.9-4.4C37.1,129.3,27.5,117.7,24.2,109.1z
	 M47.2,126.7c2.1,1.2,5.1,2.9,8.5,3.8c5.3,1.5,11,1.9,11,1.9s12.1-21.6,18.6-30c5-6.5,22.8-23.1,22.8-23.1s-2-5.5-3.4-8.3
	C95.2,52.2,70,44.3,50.9,53.5S22.5,87,29.7,105.7C32.6,113,40.8,123,47.2,126.7z"/>
<path id="XMLID_18_" class="st0" d="M34.4,249.6c-22.5-6.5-38.4-32.4-33.4-56.5s30.2-42,54.2-37.4c3.5,0.7,10.1,2.7,10.1,2.7
	s2.9,28.3,5.3,37.5c3.2,11.9,14.6,38.4,14.6,38.4s-4.4,4.9-9.5,8.8c-3.3,2.5-6.9,4-9.5,5.1C58.2,251.6,43.2,252.2,34.4,249.6z
	 M62.2,242c2.3-0.9,5.4-2.3,8.2-4.4c4.4-3.3,8.2-7.6,8.2-7.6s-9.8-22.7-12.6-33c-2.1-7.9-4.6-32.2-4.6-32.2s-5.6-1.8-8.6-2.3
	c-20.6-3.9-42.2,11.4-46.5,32.1s9.4,42.9,28.7,48.5C42.5,245.3,55.5,244.9,62.2,242z"/>
<path id="XMLID_15_" class="st0" d="M137.4,327.2c-19.9,12.4-49.8,6.9-64.4-12.9c-14.6-19.8-11.1-50.5,8.4-65.3
	c2.8-2.2,8.8-5.7,8.8-5.7s22.9,16.8,31.5,21.1c11,5.6,38.4,14.8,38.4,14.8s0.7,6.6,0.2,13c-0.3,4.1-1.6,7.8-2.5,10.5
	C154.8,310.8,145.1,322.4,137.4,327.2z M150.3,301.4c0.8-2.3,1.9-5.5,2.2-9c0.4-5.5-0.2-11.1-0.2-11.1s-23.5-7.9-32.9-12.7
	c-7.3-3.7-27-18.1-27-18.1s-5.1,3-7.5,4.9c-16.7,12.7-19.7,39-7.2,56s38.2,21.7,55.3,11.1C139.6,318.3,147.9,308.3,150.3,301.4z"/>
</svg>
