<!-- Generator: Adobe Illustrator 19.0.0, SVG Export Plug-In  -->
<svg version="1.0"
	 xmlns="http://www.w3.org/2000/svg" xmlns:xlink="http://www.w3.org/1999/xlink" xmlns:a="http://ns.adobe.com/AdobeSVGViewerExtensions/3.0/"
	 x="0px" y="0px" width="129.5px" height="129.5px" viewBox="0 0 129.5 129.5" style="enable-background:new 0 0 129.5 129.5;"
	 xml:space="preserve">
<style type="text/css">
	.st0{fill:url(#XMLID_19_);}
	.st1{fill:url(#XMLID_20_);}
</style>
<defs>
</defs>
<linearGradient id="XMLID_19_" gradientUnits="userSpaceOnUse" x1="68.1756" y1="-7.9076" x2="64.5381" y2="69.2085">
	<stop  offset="0" style="stop-color:#F5AA1F"/>
	<stop  offset="0.19" style="stop-color:#F39B1E"/>
	<stop  offset="0.553" style="stop-color:#EE751A"/>
	<stop  offset="1" style="stop-color:#E63E15"/>
</linearGradient>
<path id="XMLID_15_" class="st0" d="M64.7,0C29,0,0,29,0,64.7s29,64.7,64.7,64.7s64.7-29,64.7-64.7S100.5,0,64.7,0z M66,121.3
	c-31.4,0-56.9-25.5-56.9-56.9c0-28.5,21-52.2,48.4-56.3C38.2,17.7,25,37.6,25,60.5c0,31.9,25.5,57.8,57.2,58.5
	C77,120.5,71.6,121.3,66,121.3z M97.9,82.9c-10,0-18.2-8.1-18.2-18.2s8.1-18.2,18.2-18.2s18.2,8.1,18.2,18.2S107.9,82.9,97.9,82.9z"
	/>
</svg>
