<!-- Generator: Adobe Illustrator 19.0.0, SVG Export Plug-In  -->
<svg version="1.0"
	 xmlns="http://www.w3.org/2000/svg" xmlns:xlink="http://www.w3.org/1999/xlink" xmlns:a="http://ns.adobe.com/AdobeSVGViewerExtensions/3.0/"
	 x="0px" y="0px" width="50.7px" height="39.8px" viewBox="0 0 50.7 39.8" style="enable-background:new 0 0 50.7 39.8;"
	 xml:space="preserve">
<style type="text/css">
	.st0{fill:#082158;}
</style>
<defs>
</defs>
<g id="XMLID_27_">
	<path id="XMLID_38_" class="st0" d="M21.7,18.2c-0.2,0-0.4,0-0.6,0.1c0.1,0.2,0.2,0.4,0.2,0.6c0,0.6-0.5,1-1,1
		c-0.1,0-0.3,0-0.4-0.1c0,0,0,0.1,0,0.1c0,0.9,0.8,1.7,1.9,1.7c1,0,1.9-0.8,1.9-1.7C23.6,19,22.8,18.2,21.7,18.2z"/>
	<path id="XMLID_35_" class="st0" d="M11.4,26.8c0.7-2,0.3-4.4-1.3-6.1c-1.6-1.6-3.8-2.1-5.8-1.4c-0.3,0.1-0.4,0.5,0,0.6
		C4.6,20,4.6,19.9,5,20.1c0.4,0.2,1.9,1.2,2.4,2.1C7.9,23,8.2,25.1,7.2,26c0,0-0.1,0-0.1,0c0,0,0,0,0,0c-1,1-3.1,0.8-3.9,0.3
		c-0.8-0.5-1.9-2-2.1-2.4c-0.2-0.4-0.2-0.5-0.3-0.7c-0.1-0.4-0.5-0.3-0.6,0c-0.7,2-0.2,4.2,1.4,5.8c1.7,1.7,4.1,2.1,6.2,1.3l8.7,8.7
		c1,1,2.6,1,3.6,0c1-1,1-2.6,0-3.6L11.4,26.8z M19.3,38.2c-0.5,0.5-1.2,0.5-1.6,0c-0.5-0.5-0.5-1.2,0-1.6c0.5-0.5,1.2-0.5,1.6,0
		C19.8,37,19.8,37.7,19.3,38.2z"/>
	<path id="XMLID_34_" class="st0" d="M30.5,19.9c-0.6,0-1-0.5-1-1c0-0.2,0.1-0.4,0.2-0.6c-0.2-0.1-0.4-0.1-0.6-0.1
		c-1,0-1.9,0.8-1.9,1.7c0,0.9,0.8,1.7,1.9,1.7c1,0,1.9-0.8,1.9-1.7c0,0,0-0.1,0-0.1C30.8,19.9,30.6,19.9,30.5,19.9z"/>
	<path id="XMLID_31_" class="st0" d="M50.5,23.3c-0.1-0.3-0.5-0.4-0.6,0c-0.1,0.3-0.1,0.3-0.3,0.7c-0.2,0.4-1.2,1.9-2.1,2.4
		c-0.8,0.5-2.9,0.7-3.9-0.3c0,0,0,0,0,0c0,0,0,0-0.1,0c-1-1-0.8-3.1-0.3-3.9c0.5-0.8,2-1.9,2.4-2.1c0.4-0.2,0.5-0.2,0.7-0.3
		c0.4-0.1,0.3-0.5,0-0.6c-2-0.7-4.2-0.2-5.8,1.4c-1.6,1.6-2.1,4-1.3,6.1l-8.8,8.8c-1,1-1,2.6,0,3.6c1,1,2.6,1,3.6,0l8.7-8.7
		c2.1,0.8,4.5,0.4,6.2-1.3C50.6,27.5,51.1,25.3,50.5,23.3z M33,38.2c-0.5,0.5-1.2,0.5-1.6,0c-0.5-0.5-0.5-1.2,0-1.6
		c0.5-0.5,1.2-0.5,1.6,0C33.5,37,33.5,37.7,33,38.2z"/>
	<path id="XMLID_28_" class="st0" d="M38.2,13.1c0-0.5-0.2-0.7-0.7-0.7c-0.1,0-0.4,0-1,0c0-0.4-0.1-0.8-0.1-1.2c0-3.7-2.5-7-5.4-9.1
		c0,0.1,0,0.2,0,0.2c0,0.3,0,0.6,0,0.9c0,0.3-0.1,0.6-0.1,0.9c-0.1,0.6-0.2,1.1-0.3,1.6c-0.1,0.5-0.2,1-0.4,1.5
		c-0.1,0.5-0.3,0.9-0.5,1.3c-0.3,0.8-0.6,1.5-0.9,1.9c-0.3,0.4-0.4,0.7-0.4,0.7s0-0.1,0-0.2c0-0.1,0-0.3,0-0.6c0-0.5,0.1-1.2,0.1-2
		c0.1-0.8,0.1-1.8,0.2-2.8c0-0.5,0.1-1,0.1-1.6c0-0.3,0-0.5,0-0.8c0-0.3,0-0.5,0-0.8c0-0.5,0-0.9,0-1.4C27.7,0.4,26.5,0,25.4,0
		c-1.1,0-2.3,0.4-3.5,0.9c0,0.5,0,0.9,0,1.4c0,0.3,0,0.5,0,0.8c0,0.3,0,0.5,0,0.8c0,0.5,0.1,1.1,0.1,1.6c0.1,1,0.1,2,0.2,2.8
		c0.1,0.8,0.1,1.5,0.1,2c0,0.2,0,0.4,0,0.6c0,0.1,0,0.2,0,0.2s-0.2-0.2-0.4-0.7c-0.3-0.4-0.6-1.1-0.9-1.9c-0.2-0.4-0.3-0.8-0.5-1.3
		c-0.1-0.5-0.3-1-0.4-1.5c-0.1-0.5-0.2-1.1-0.3-1.6c0-0.3-0.1-0.6-0.1-0.9c0-0.3,0-0.6,0-0.9c0-0.1,0-0.2,0-0.2
		c-2.9,2-5.4,5.4-5.4,9.1c0,0.4,0,0.8-0.1,1.2c-0.6,0-1,0-1,0c-0.5,0-0.7,0.2-0.7,0.7c0,0.5,0,3.1,0,3.1h1.5c0,0.3,0,0.6,0,0.9
		c0,7.2,5,12.9,11.3,12.9c0,0,0,0,0,0c0,0,0,0,0,0c6.3,0,11.3-5.7,11.3-12.9c0-0.3,0-0.6,0-0.9h1.5C38.2,16.2,38.2,13.6,38.2,13.1z
		 M25.4,28.9C25.4,28.9,25.4,28.9,25.4,28.9C25.4,28.9,25.4,28.9,25.4,28.9c-5.7,0-10.1-5.1-10.1-11.7c0-0.3,0-0.6,0-0.9h10h10
		c0,0.3,0,0.6,0,0.9C35.5,23.7,31.1,28.9,25.4,28.9z"/>
</g>
</svg>
