<!-- Generator: Adobe Illustrator 19.0.0, SVG Export Plug-In  -->
<svg version="1.0"
	 xmlns="http://www.w3.org/2000/svg" xmlns:xlink="http://www.w3.org/1999/xlink" xmlns:a="http://ns.adobe.com/AdobeSVGViewerExtensions/3.0/"
	 x="0px" y="0px" width="336.3px" height="339.2px" viewBox="0 0 336.3 339.2" style="enable-background:new 0 0 336.3 339.2;"
	 xml:space="preserve">
<style type="text/css">
	.st0{fill:url(#XMLID_293_);}
	.st1{fill:none;}
	.st2{fill:#082158;}
	.st3{font-family:'FuturaBT-Book';}
	.st4{font-size:10.7009px;}
	.st5{fill:#082158;stroke:#082158;stroke-miterlimit:10;}
	.st6{fill:#082158;stroke:#FFFFFF;stroke-width:0.75;stroke-miterlimit:10;}
	.st7{fill:#082158;stroke:#FFFFFF;stroke-width:0.75;stroke-linecap:round;stroke-linejoin:round;stroke-miterlimit:10;}
	
		.st8{fill-rule:evenodd;clip-rule:evenodd;fill:#082158;stroke:#FFFFFF;stroke-width:0.5;stroke-linecap:round;stroke-linejoin:round;stroke-miterlimit:10;}
	
		.st9{opacity:0.8;fill-rule:evenodd;clip-rule:evenodd;fill:#082158;stroke:#082158;stroke-linecap:round;stroke-linejoin:round;stroke-miterlimit:10;}
	
		.st10{opacity:0.1;fill-rule:evenodd;clip-rule:evenodd;fill:#082158;stroke:#082158;stroke-linecap:round;stroke-linejoin:round;stroke-miterlimit:10;}
	.st11{fill:#EFEFEF;}
	.st12{fill:#FFFFFF;}
	.st13{fill:#0B2E44;}
	.st14{opacity:0.7;fill:#FFFFFF;}
	.st15{opacity:0.7;}
	.st16{fill:#19475E;}
	.st17{fill:#FAFBFC;stroke:#082158;stroke-miterlimit:10;}
	.st18{fill:#082158;stroke:#082158;stroke-width:0.25;stroke-miterlimit:10;}
	.st19{font-size:8.6923px;}
	.st20{font-size:8.6945px;}
	.st21{fill:#33B6BC;}
	.st22{fill:url(#XMLID_294_);}
</style>
<defs>
</defs>
<linearGradient id="XMLID_293_" gradientUnits="userSpaceOnUse" x1="171.5852" y1="96.9686" x2="167.9477" y2="174.0847">
	<stop  offset="0" style="stop-color:#F5AA1F"/>
	<stop  offset="0.19" style="stop-color:#F39B1E"/>
	<stop  offset="0.553" style="stop-color:#EE751A"/>
	<stop  offset="1" style="stop-color:#E63E15"/>
</linearGradient>
<path id="XMLID_283_" class="st0" d="M168.2,104.9c-35.8,0-64.7,29-64.7,64.7s29,64.7,64.7,64.7s64.7-29,64.7-64.7
	S203.9,104.9,168.2,104.9z M169.4,226.2c-31.4,0-56.9-25.5-56.9-56.9c0-28.5,21-52.2,48.4-56.3c-19.2,9.6-32.5,29.4-32.5,52.4
	c0,31.9,25.5,57.8,57.2,58.5C180.5,225.4,175,226.2,169.4,226.2z M201.3,187.8c-10,0-18.2-8.1-18.2-18.2c0-10,8.1-18.2,18.2-18.2
	c10,0,18.2,8.1,18.2,18.2C219.5,179.7,211.3,187.8,201.3,187.8z"/>
<rect id="XMLID_278_" x="145.8" y="54.9" class="st1" width="57.7" height="12.6"/>
<text id="XMLID_277_" transform="matrix(1 0 0 1 145.7776 62.9869)" class="st2 st3 st4">Consumidor</text>
<g id="XMLID_234_">
	<g id="XMLID_250_">
		<g id="XMLID_255_">
			<path id="XMLID_272_" class="st5" d="M273.2,92.1c-0.8,2.1-4,2.4-4,2.4s-3.2-0.2-4.1-2.3c0,0-7.4,1.9-8,9.1c0,0,3.1,5.9,12.2,6.4
				c9.1-0.7,12-6.7,12-6.7C280.6,93.8,273.2,92.1,273.2,92.1z"/>
			<circle id="XMLID_256_" class="st5" cx="269.2" cy="82.8" r="8"/>
		</g>
	</g>
	<g id="XMLID_246_">
		<g id="XMLID_247_">
			<path id="XMLID_249_" class="st5" d="M284.2,86.9c-0.3,0.9-1.8,1-1.8,1s-1.4-0.1-1.8-1c0,0-3.3,0.8-3.5,4c0,0,1.4,2.6,5.4,2.8
				c4-0.3,5.3-2.9,5.3-2.9C287.5,87.7,284.2,86.9,284.2,86.9z"/>
			<circle id="XMLID_248_" class="st5" cx="282.4" cy="82.8" r="3.5"/>
		</g>
	</g>
	<g id="XMLID_235_">
		<g id="XMLID_236_">
			<path id="XMLID_243_" class="st5" d="M257.6,87.2c-0.3,0.9-1.8,1-1.8,1s-1.4-0.1-1.8-1c0,0-3.3,0.8-3.5,4c0,0,1.4,2.6,5.4,2.8
				c4-0.3,5.3-2.9,5.3-2.9C260.9,88,257.6,87.2,257.6,87.2z"/>
			<circle id="XMLID_237_" class="st5" cx="255.8" cy="83.1" r="3.5"/>
		</g>
	</g>
</g>
<g id="Acces_1_">
	<path id="XMLID_233_" class="st6" d="M175.7,27.6h6.4l2.8,6.4v14.8h-11.4v-2.7c0,0-3.2-3.8-2.9-6.8c0,0-2.7-0.3,2.2-0.3
		c4.9-0.1,5.3-2.7,7.9-4.2l-0.9-3.1C179.7,31.7,175.9,31.8,175.7,27.6z"/>
	<path id="XMLID_232_" class="st7" d="M167.2,23.6c-0.3,0.6-1.3,0.7-2.1,0.2l-2.2-1.3c-0.8-0.5-1.2-1.4-0.9-2l0.2-0.4
		c0.3-0.6,1.3-0.7,2.1-0.2l2.2,1.3c0.8,0.5,1.2,1.4,0.9,2L167.2,23.6z"/>
	<g id="Phone_1_">
		<path id="XMLID_231_" class="st8" d="M182.4,39.2c0,0.5-0.4,1-1,1h-14.3c-0.5,0-1-0.4-1-1V12.8c0-0.5,0.4-1,1-1h14.3
			c0.5,0,1,0.4,1,1V39.2z"/>
		<rect id="XMLID_230_" x="167.6" y="15.2" class="st9" width="13.3" height="19.3"/>
		<polygon id="XMLID_229_" class="st10" points="180.9,15.2 180.6,15.2 167.6,33.8 167.6,34.6 180.9,34.6 		"/>
	</g>
	<g id="XMLID_224_">
		<rect id="XMLID_228_" x="167.6" y="15.2" class="st11" width="13.3" height="19.3"/>
		<rect id="XMLID_226_" x="167.6" y="20.4" class="st2" width="13.3" height="4.9"/>
		<circle id="XMLID_225_" class="st12" cx="174.2" cy="22.9" r="2.3"/>
	</g>
	<path id="XMLID_222_" class="st6" d="M186.2,34l-2.8-6.4h-6.4c0.1,4.2,4,4.1,4,4.1l0.9,3.1c-2.7,1.5-3.2,5.4-3.2,5.4
		s-0.9,5.4,2.5,8.6h4.9V34z"/>
	<g id="XMLID_220_">
		<path id="XMLID_221_" class="st7" d="M167.2,28c-0.3,0.6-1.1,0.8-1.7,0.4l-1.6-0.9c-0.6-0.3-0.8-1.1-0.4-1.7l0.2-0.4
			c0.3-0.6,1.1-0.8,1.7-0.4L167,26c0.6,0.3,0.8,1.1,0.4,1.7L167.2,28z"/>
	</g>
	<g id="XMLID_218_">
		<path id="XMLID_219_" class="st7" d="M167.2,32.1c-0.3,0.6-1.1,0.8-1.7,0.4l-1.6-0.9c-0.6-0.3-0.8-1.1-0.4-1.7l0.2-0.4
			c0.3-0.6,1.1-0.8,1.7-0.4l1.6,0.9c0.6,0.3,0.8,1.1,0.4,1.7L167.2,32.1z"/>
	</g>
	<g id="XMLID_216_">
		<path id="XMLID_217_" class="st7" d="M166.9,35.9c-0.3,0.5-0.9,0.6-1.4,0.4l-1.3-0.8c-0.5-0.3-0.6-0.9-0.4-1.4l0.2-0.3
			c0.3-0.5,0.9-0.6,1.4-0.4l1.3,0.8c0.5,0.3,0.6,0.9,0.4,1.4L166.9,35.9z"/>
	</g>
	<g id="XMLID_198_">
		<path id="XMLID_215_" class="st13" d="M172.7,22.4v1c0,0.4,0.3,0.7,0.7,0.7h1.7c0.4,0,0.7-0.3,0.7-0.7v-1H172.7z"/>
		<path id="XMLID_213_" class="st14" d="M173.1,23.7C173.1,23.7,173,23.7,173.1,23.7L173.1,23.7c-0.1,0.1-0.1,0-0.1,0v-1
			c0,0,0-0.1,0.1-0.1l0,0c0,0,0.1,0,0.1,0.1V23.7z"/>
		<path id="XMLID_212_" class="st15" d="M173.2,23.7C173.2,23.7,173.2,23.7,173.2,23.7L173.2,23.7c-0.1,0.1-0.1,0-0.1,0v-1
			c0,0,0-0.1,0.1-0.1l0,0c0,0,0.1,0,0.1,0.1V23.7z"/>
		<path id="XMLID_211_" class="st15" d="M173.8,23.7C173.8,23.7,173.7,23.7,173.8,23.7L173.8,23.7c-0.1,0.1-0.1,0-0.1,0v-1
			c0,0,0-0.1,0.1-0.1l0,0c0,0,0.1,0,0.1,0.1V23.7z"/>
		<path id="XMLID_210_" class="st15" d="M174.3,23.7C174.3,23.7,174.3,23.7,174.3,23.7L174.3,23.7c-0.1,0.1-0.1,0-0.1,0v-1
			c0,0,0-0.1,0.1-0.1l0,0c0,0,0.1,0,0.1,0.1V23.7z"/>
		<path id="XMLID_207_" class="st15" d="M174.9,23.7C174.9,23.7,174.9,23.7,174.9,23.7L174.9,23.7c-0.1,0.1-0.1,0-0.1,0v-1
			c0,0,0-0.1,0.1-0.1l0,0c0,0,0.1,0,0.1,0.1V23.7z"/>
		<path id="XMLID_205_" class="st15" d="M175.5,23.7C175.5,23.7,175.5,23.7,175.5,23.7L175.5,23.7c-0.1,0.1-0.1,0-0.1,0v-1
			c0,0,0-0.1,0.1-0.1l0,0c0,0,0.1,0,0.1,0.1V23.7z"/>
		<path id="XMLID_204_" class="st14" d="M173.6,23.7C173.6,23.7,173.6,23.7,173.6,23.7L173.6,23.7c-0.1,0.1-0.1,0-0.1,0v-1
			c0,0,0-0.1,0.1-0.1l0,0c0,0,0.1,0,0.1,0.1V23.7z"/>
		<path id="XMLID_203_" class="st14" d="M174.2,23.7C174.2,23.7,174.1,23.7,174.2,23.7L174.2,23.7c-0.1,0.1-0.1,0-0.1,0v-1
			c0,0,0-0.1,0.1-0.1l0,0c0,0,0.1,0,0.1,0.1V23.7z"/>
		<path id="XMLID_202_" class="st14" d="M174.8,23.7C174.8,23.7,174.8,23.7,174.8,23.7L174.8,23.7c-0.1,0.1-0.1,0-0.1,0v-1
			c0,0,0-0.1,0.1-0.1l0,0c0,0,0.1,0,0.1,0.1V23.7z"/>
		<path id="XMLID_201_" class="st14" d="M175.4,23.7C175.4,23.7,175.3,23.7,175.4,23.7L175.4,23.7c-0.1,0.1-0.1,0-0.1,0v-1
			c0,0,0-0.1,0.1-0.1l0,0c0,0,0.1,0,0.1,0.1V23.7z"/>
		<path id="XMLID_200_" class="st16" d="M176,22.3c0,0.1-0.1,0.2-0.2,0.2h-3.2c-0.1,0-0.2-0.1-0.2-0.2l0,0c0-0.1,0.1-0.2,0.2-0.2
			h3.2C176,22.1,176,22.2,176,22.3L176,22.3z"/>
		<path id="XMLID_199_" class="st13" d="M175.5,21.7c0,0.1,0,0.1-0.1,0.2l-2.3,0.5c-0.1,0-0.1,0-0.2-0.1l0,0c0-0.1,0-0.1,0.1-0.2
			l2.3-0.5C175.4,21.6,175.5,21.6,175.5,21.7L175.5,21.7z"/>
	</g>
</g>
<path id="XMLID_183_" class="st5" d="M285.8,189.2l-4.3,5.7c-0.7,1.1-0.4,2.5,0.7,3.3c0.4,0.3,0.9,0.4,1.3,0.4l0,0
	c0.8,0,1.5-0.4,2-1l0.5-0.8c0.3,1,1.1,1.8,2.2,1.8c1.3,0,2.3-1,2.3-2.3c0,1.3,1,2.3,2.3,2.3c1.3,0,2.3-1,2.3-2.3
	c0,1.3,1,2.3,2.3,2.3c1.3,0,2.3-1,2.3-2.3c0,1.3,1,2.3,2.3,2.3c1.3,0,2.3-1,2.3-2.3c0,1.3,1,2.3,2.3,2.3c1.3,0,2.3-1,2.3-2.3
	c0,1.3,1,2.3,2.3,2.3c1.1,0,2-0.8,2.2-1.8l0.5,0.8c0.5,0.7,1.2,1,2,1c0.4,0,0.9-0.1,1.3-0.4c1.1-0.7,1.4-2.2,0.7-3.3l-4.3-5.7H285.8
	z M318.6,217.3h-37.5c0-1.9,1.6-3.5,3.5-3.5h30.5C317,213.8,318.6,215.4,318.6,217.3L318.6,217.3z M288.1,199.7h-2.3v12.9h28.1
	v-12.9H288.1z M288.1,210.3v-8.2h7v8.2H288.1z M297.5,210.3v-8.2h14.1v8.2H297.5z M291.6,205.6c0,0.6-0.5,1.2-1.2,1.2
	c-0.6,0-1.2-0.5-1.2-1.2c0-0.6,0.5-1.2,1.2-1.2C291.1,204.4,291.6,204.9,291.6,205.6L291.6,205.6z"/>
<g id="XMLID_118_">
	<g id="XMLID_179_">
		<g id="XMLID_180_">
			<path id="XMLID_182_" class="st5" d="M220.7,292.3c-0.4,1.1-2,1.2-2,1.2s-1.6-0.1-2-1.2c0,0-3.8,0.9-4.1,4.6c0,0,1.5,3,6.1,3.3
				c4.6-0.3,6.1-3.3,6.1-3.3C224.5,293.2,220.7,292.3,220.7,292.3z"/>
			<circle id="XMLID_181_" class="st5" cx="218.7" cy="287.6" r="4.1"/>
		</g>
	</g>
	<g id="XMLID_135_">
		<g id="XMLID_136_">
			<path id="XMLID_168_" class="st5" d="M206.2,318c-0.4,1.1-2,1.2-2,1.2s-1.6-0.1-2-1.2c0,0-3.8,0.9-4.1,4.6c0,0,1.5,3,6.1,3.3
				c4.6-0.3,6.1-3.3,6.1-3.3C210,319,206.2,318,206.2,318z"/>
			<circle id="XMLID_167_" class="st5" cx="204.2" cy="313.3" r="4.1"/>
		</g>
	</g>
	<g id="XMLID_131_">
		<g id="XMLID_132_">
			<path id="XMLID_134_" class="st5" d="M237.5,317.4c-0.4,1.1-2,1.2-2,1.2s-1.6-0.1-2-1.2c0,0-3.8,0.9-4.1,4.6c0,0,1.5,3,6.1,3.3
				c4.6-0.3,6.1-3.3,6.1-3.3C241.3,318.3,237.5,317.4,237.5,317.4z"/>
			<circle id="XMLID_133_" class="st5" cx="235.6" cy="312.7" r="4.1"/>
		</g>
	</g>
	<line id="XMLID_130_" class="st17" x1="227.6" y1="299.4" x2="232.8" y2="306.2"/>
	<line id="XMLID_129_" class="st17" x1="209.8" y1="299.4" x2="204.6" y2="306.2"/>
	<line id="XMLID_128_" class="st17" x1="213.3" y1="323.1" x2="226.3" y2="323.1"/>
	<path id="XMLID_120_" class="st2" d="M220,304.3c-3.5,0-6.3,2.8-6.3,6.3c0,3.5,2.8,6.3,6.3,6.3c3.5,0,6.3-2.8,6.3-6.3
		C226.3,307.2,223.5,304.3,220,304.3z M220.2,316.1c-3.1,0-5.5-2.5-5.5-5.5c0-2.8,2-5.1,4.7-5.5c-1.9,0.9-3.2,2.9-3.2,5.1
		c0,3.1,2.5,5.6,5.6,5.7C221.2,316,220.7,316.1,220.2,316.1z M223.2,312.4c-1,0-1.8-0.8-1.8-1.8s0.8-1.8,1.8-1.8s1.8,0.8,1.8,1.8
		S224.2,312.4,223.2,312.4z"/>
</g>
<g id="XMLID_113_">
	<path id="XMLID_116_" class="st5" d="M126.5,296.1c0,0-4.4,1.1-5.7,1.3c-0.5,0.1-1.4-0.3-1.4-0.3l-4.9-3.9
		c-0.1-0.1-0.2-0.1-0.3-0.2l0,0l0,0c-0.6-0.4-1.7-0.3-2.3,0.1l-7.9,4.5c-0.2,0.1-2.3,0.9-2.3,2.5c0,1.2,0.9,2.1,2.1,2.1
		c0.6,0,2.1-0.7,2.3-0.9l3.9-2.2c0,0,1.3-0.7,2.2,0.2s8.4,8.4,9.6,8.6c1,0.2,4.8-0.9,4.8-0.9L126.5,296.1z"/>
	<path id="XMLID_115_" class="st5" d="M104.2,315.4c-0.6-0.6-1.6-0.6-2.5-0.1c0.5-0.9,0.5-1.9-0.1-2.5c-0.5-0.5-1.4-0.6-2.2-0.2
		c0.4-0.8,0.3-1.7-0.3-2.2c-0.6-0.6-1.5-0.6-2.3-0.2c0.4-0.8,0.4-1.8-0.2-2.3c-0.8-0.8-2.2-0.6-3.1,0.4c-1,1-1.1,2.4-0.4,3.2
		c0.6,0.6,1.5,0.6,2.3,0.2c-0.4,0.8-0.4,1.8,0.2,2.3c0.5,0.5,1.4,0.6,2.2,0.2c-0.4,0.8-0.3,1.7,0.3,2.2c0.6,0.6,1.6,0.6,2.5,0.1
		c-0.5,0.9-0.5,1.9,0.1,2.5c0.8,0.8,2.2,0.6,3.1-0.4C104.8,317.6,105,316.2,104.2,315.4z"/>
	<path id="XMLID_114_" class="st18" d="M118.7,309.3L118.7,309.3l-2.8-2.7l-3.6-3.6c-1.6-2.4-3.6-1-3.6-1l-3.3,1.5
		c0,0-1.4,0.6-2.5,0.3c-3.1-0.9-3-3.7-2.6-4.6c0.3-0.7,1-1.8,2.9-2.8c0.6-0.3,3.5-2,3.5-2c-3.1-3.6-9.9,1.7-9.9,1.7
		c-1.2,0.9-2.9,0.5-2.9,0.5c-1.3-0.3-4.4-1.6-4.4-1.6v12.9l2.1,0.6c0,0,0,0,0,0c0.2-0.7,0.5-1.3,1.1-1.8c1.6-1.5,4.1-1.4,5.6,0.2
		c0.4,0.4,0.7,1,0.9,1.5c0.6,0.1,1.2,0.3,1.6,0.8c0.4,0.5,0.7,1,0.7,1.7c0.6,0.1,1.2,0.5,1.7,1c0.4,0.5,0.7,1,0.8,1.6
		c0.6,0.2,1.2,0.5,1.7,1c0.9,0.9,1.1,2.2,0.8,3.4l0.7,0.7l0,0c0.3,0.3,0.7,0.5,1.1,0.5c0.8,0,1.5-0.7,1.5-1.5c0-0.5-0.2-0.9-0.5-1.1
		l0,0l-2.6-2.6c-0.5-0.8,0.1-0.8,0.1-0.8l3.8,3.7l0,0c0.3,0.3,0.7,0.5,1.1,0.5c0.8,0,1.5-0.7,1.5-1.5c0-0.5-0.2-0.9-0.5-1.1l0,0
		l-3.3-3.3c-0.1-0.8,0.5-0.5,0.5-0.5l0.8,0.8l3,3l0,0c0.3,0.3,0.7,0.5,1.1,0.5c0.8,0,1.5-0.7,1.5-1.5c0-0.5-0.2-0.9-0.5-1.1l0,0
		l-3.3-3.2c-0.1-0.6,0.2-0.7,0.4-0.7l3.4,3.4l0,0c0.3,0.3,0.7,0.5,1.1,0.5c0.8,0,1.5-0.7,1.5-1.5C119.2,310,119,309.6,118.7,309.3z"
		/>
</g>
<g id="XMLID_94_">
	<path id="XMLID_101_" class="st5" d="M50.1,200.2l-0.6-11.9h-3.1l-0.7,11.9h-1.9l0-2.9l-5,2.7l0-2.9l-5.1,2.7v-2.5l-5,2.7v-2.9
		l-6.4,3.4v16.7h16.8v-4.6h8.7v4.6h3.8v-17.1H50.1z M29,205.7h-4.4v-2.9H29V205.7z M35.4,205.7H31v-2.9h4.4V205.7z M41.9,205.7h-4.4
		v-2.9h4.4V205.7z M48.4,205.7H44v-2.9h4.4V205.7z M48.4,205.7"/>
	<path id="XMLID_98_" class="st5" d="M38.4,187.1c-0.3,0-0.7-0.1-1-0.1c-1.2-0.3-2.1-0.8-2.1-0.8s0.1,0.2,0.4,0.5
		c0.3,0.3,0.7,0.7,1.4,1c0.3,0.2,0.7,0.3,1.1,0.4c0.4,0.1,0.9,0.2,1.4,0.1c1-0.1,2-0.6,2.7-1.4c0.3-0.3,0.6-0.7,0.9-0.9
		c0.3-0.2,0.6-0.4,0.9-0.5c0.6-0.3,1.3-0.2,1.9-0.1c0.6,0.2,1.1,0.4,1.5,0.6c0.3,0.2,0.5,0.3,0.5,0.3s-0.1-0.2-0.4-0.5
		c-0.3-0.3-0.7-0.7-1.3-1.1c-0.3-0.2-0.7-0.3-1.2-0.4c-0.4-0.1-0.9-0.1-1.4,0.1c-0.2,0.1-0.5,0.1-0.7,0.3c-0.2,0.1-0.5,0.2-0.7,0.4
		c-0.5,0.4-0.7,0.6-1,1c-0.5,0.6-1.1,1-1.8,1.1C39.1,187.1,38.8,187.1,38.4,187.1L38.4,187.1z M38.4,187.1"/>
	<path id="XMLID_95_" class="st5" d="M28.8,186.2c0.3,0.2,0.7,0.3,1.1,0.4c0.4,0.1,0.9,0.2,1.4,0.1c1-0.1,2-0.7,2.7-1.4
		c0.3-0.3,0.6-0.7,0.9-0.9c0.2-0.2,0.6-0.4,0.9-0.5c0.6-0.3,1.3-0.2,1.9-0.1c0.6,0.1,1.1,0.4,1.5,0.6c0.4,0.2,0.6,0.3,0.6,0.3
		s-0.1-0.2-0.4-0.5c-0.3-0.3-0.7-0.7-1.3-1.1c-0.3-0.2-0.7-0.3-1.2-0.4c-0.4-0.1-0.9-0.1-1.4,0.1c-0.2,0.1-0.5,0.1-0.7,0.3
		c-0.2,0.1-0.5,0.2-0.7,0.4c-0.5,0.4-0.7,0.6-1,1c-0.5,0.6-1.2,1-1.8,1.1c-0.3,0.1-0.7,0.1-1,0.1c-0.3,0-0.7-0.1-1-0.2
		c-1.2-0.3-2.1-0.8-2.1-0.8s0.1,0.2,0.4,0.5C27.7,185.4,28.1,185.8,28.8,186.2L28.8,186.2z M28.8,186.2"/>
</g>
<rect id="XMLID_92_" x="258.2" y="113.8" class="st1" width="43.3" height="12.6"/>
<text id="XMLID_90_" transform="matrix(1 0 0 1 258.239 121.9361)" class="st2 st3 st4">Promotor</text>
<rect id="XMLID_89_" x="273.1" y="226.5" class="st1" width="32.3" height="12.6"/>
<text id="XMLID_87_" transform="matrix(1 0 0 1 273.1023 234.5513)" class="st2 st3 st4">Tienda</text>
<rect id="XMLID_86_" x="83.2" y="274.8" class="st1" width="56.2" height="12.6"/>
<text id="XMLID_84_" transform="matrix(1 0 0 1 83.2405 282.8502)" class="st2 st3 st4">Distribuidor</text>
<rect id="XMLID_82_" x="24.9" y="226" class="st1" width="56.2" height="12.6"/>
<text id="XMLID_81_" transform="matrix(1 0 0 1 24.9172 234.1451)" class="st2 st3 st4">Proveedor</text>
<rect id="XMLID_80_" x="39.4" y="100.1" class="st1" width="43.1" height="20"/>
<text id="XMLID_78_" transform="matrix(1 0 0 1 39.3616 106.65)"><tspan x="0" y="0" class="st2 st3 st19">Técnico en </tspan><tspan x="0" y="10.4" class="st2 st3 st19">Servicio</tspan></text>
<rect id="XMLID_77_" x="189.4" y="266.3" class="st1" width="62.3" height="17"/>
<text id="XMLID_76_" transform="matrix(1 0 0 1 237.4734 272.8414)"><tspan x="0" y="0" class="st2 st3 st20">Sub</tspan><tspan x="-27.7" y="7.4" class="st2 st3 st20">Disribuidor</tspan></text>
<path id="XMLID_71_" class="st21" d="M265.8,295c-1.8,23.4-24,44.2-48.6,44.2s-47.2-21.1-47.6-45.5c-0.1-3.6,0.6-10.4,0.6-10.4
	s27.1-8.5,35.7-12.8c11-5.5,34.7-22.1,34.7-22.1s5.7,3.3,10.6,7.5c3.1,2.7,5.4,5.9,7,8.3C262.9,271.3,266.5,285.9,265.8,295z
	 M252.7,269.3c-1.4-2-3.3-4.8-6-7.1c-4.1-3.6-9.1-6.5-9.1-6.5s-20.3,14.3-29.7,19c-7.3,3.7-30.6,11-30.6,11s-0.6,5.9-0.5,8.9
	c0.3,20.9,19.7,39,40.8,39s40.1-17.9,41.7-37.9C259.9,287.9,256.8,275.3,252.7,269.3z"/>
<path id="XMLID_68_" class="st21" d="M321.9,172.5c17.1,16,19.6,46.3,4.2,65.6c-15.4,19.2-45.9,23.7-65.3,8.8c-2.8-2.2-7.7-7-7.7-7
	s10.3-26.5,12.3-35.9c2.6-12.1,4.4-40.9,4.4-40.9s6.2-2.4,12.5-3.5c4-0.7,8-0.5,10.8-0.3C301.5,159.9,315.2,166.2,321.9,172.5z
	 M293.6,166.6c-2.5-0.2-5.8-0.4-9.3,0.2c-5.4,1-10.7,3-10.7,3s-1.5,24.7-3.7,35.1c-1.7,8-10.5,30.8-10.5,30.8s4.2,4.1,6.6,6
	c16.6,12.8,42.8,9,56-7.5s11.1-42.5-3.6-56.2C312.7,172.6,300.9,167.2,293.6,166.6z"/>
<path id="XMLID_65_" class="st21" d="M259.8,55.2c23.3-2.7,48,15.1,52.7,39.3s-11.7,50.4-35.6,55.4c-3.5,0.7-10.4,1.4-10.4,1.4
	s-13.5-25-19.4-32.6c-7.5-9.8-28.3-29.8-28.3-29.8s2.2-6.3,5.4-11.8c2.1-3.6,4.8-6.4,6.8-8.4C237,62.6,250.7,56.2,259.8,55.2z
	 M237,73c-1.7,1.7-4.1,4.2-5.8,7.2c-2.7,4.7-4.6,10.1-4.6,10.1s17.9,17.2,24.3,25.6c5,6.5,16.6,27.9,16.6,27.9s5.9-0.5,8.9-1.2
	c20.5-4.3,34.5-26.8,30.5-47.5c-4-20.7-25.2-36-45.2-33.7C253.9,62.3,242.2,67.7,237,73z"/>
<path id="XMLID_62_" class="st21" d="M132.4,20.7c13-19.5,42.5-26.9,64-14.9s31,41.4,19.4,62.9c-1.7,3.2-5.6,8.8-5.6,8.8
	s-27.8-5.8-37.4-6.2c-12.3-0.6-41.1,2.4-41.1,2.4s-3.4-5.7-5.5-11.7c-1.4-3.9-1.8-7.8-2-10.6C123.4,42.9,127.3,28.3,132.4,20.7z
	 M131.3,49.6c0.2,2.4,0.6,5.8,1.8,9.1c1.9,5.2,4.8,10.1,4.8,10.1s24.6-2.6,35.2-2.1c8.2,0.4,32.1,5.3,32.1,5.3s3.4-4.8,4.8-7.5
	c9.9-18.4,1.8-43.7-16.6-54s-43.8-4-54.9,12.8C134.1,29.8,130.6,42.3,131.3,49.6z"/>
<path id="XMLID_59_" class="st21" d="M24.2,109.1c-8.5-21.8,2.5-50.2,24.7-60.9s51.7-1.4,62.6,20.4c1.6,3.2,3.9,9.7,3.9,9.7
	s-20.7,19.4-26.6,27c-7.6,9.7-21.7,34.9-21.7,34.9s-6.6-0.5-12.8-2.2c-4-1.1-7.4-3-9.9-4.4C37.1,129.3,27.5,117.7,24.2,109.1z
	 M47.2,126.7c2.1,1.2,5.1,2.9,8.5,3.8c5.3,1.5,11,1.9,11,1.9s12.1-21.6,18.6-30c5-6.5,22.8-23.1,22.8-23.1s-2-5.5-3.4-8.3
	C95.2,52.2,70,44.3,50.9,53.5S22.5,87,29.7,105.7C32.6,113,40.8,123,47.2,126.7z"/>
<path id="XMLID_55_" class="st21" d="M34.4,249.6c-22.5-6.5-38.4-32.4-33.4-56.5s30.2-42,54.2-37.4c3.5,0.7,10.1,2.7,10.1,2.7
	s2.9,28.3,5.3,37.5c3.2,11.9,14.6,38.4,14.6,38.4s-4.4,4.9-9.5,8.8c-3.3,2.5-6.9,4-9.5,5.1C58.2,251.6,43.2,252.2,34.4,249.6z
	 M62.2,242c2.3-0.9,5.4-2.3,8.2-4.4c4.4-3.3,8.2-7.6,8.2-7.6s-9.8-22.7-12.6-33c-2.1-7.9-4.6-32.2-4.6-32.2s-5.6-1.8-8.6-2.3
	c-20.6-3.9-42.2,11.4-46.5,32.1s9.4,42.9,28.7,48.5C42.5,245.3,55.5,244.9,62.2,242z"/>
<path id="XMLID_52_" class="st21" d="M137.4,327.2c-19.9,12.4-49.8,6.9-64.4-12.9c-14.6-19.8-11.1-50.5,8.4-65.3
	c2.8-2.2,8.8-5.7,8.8-5.7s22.9,16.8,31.5,21.1c11,5.6,38.4,14.8,38.4,14.8s0.7,6.6,0.2,13c-0.3,4.1-1.6,7.8-2.5,10.5
	C154.8,310.8,145.1,322.4,137.4,327.2z M150.3,301.4c0.8-2.3,1.9-5.5,2.2-9c0.4-5.5-0.2-11.1-0.2-11.1s-23.5-7.9-32.9-12.7
	c-7.3-3.7-27-18.1-27-18.1s-5.1,3-7.5,4.9c-16.7,12.7-19.7,39-7.2,56s38.2,21.7,55.3,11.1C139.6,318.3,147.9,308.3,150.3,301.4z"/>
<g id="XMLID_27_">
	<path id="XMLID_51_" class="st2" d="M61.7,73c-0.2,0-0.4,0-0.6,0.1c0.1,0.2,0.2,0.4,0.2,0.6c0,0.6-0.5,1-1,1c-0.1,0-0.3,0-0.4-0.1
		c0,0,0,0.1,0,0.1c0,0.9,0.8,1.7,1.9,1.7c1,0,1.9-0.8,1.9-1.7C63.6,73.8,62.7,73,61.7,73z"/>
	<path id="XMLID_35_" class="st2" d="M51.4,81.6c0.7-2,0.3-4.4-1.3-6.1c-1.6-1.6-3.8-2.1-5.8-1.4c-0.3,0.1-0.4,0.5,0,0.6
		c0.3,0.1,0.3,0.1,0.7,0.3c0.4,0.2,1.9,1.2,2.4,2.1c0.5,0.8,0.7,2.9-0.3,3.9c0,0-0.1,0-0.1,0c0,0,0,0,0,0c-1,1-3.1,0.8-3.9,0.3
		c-0.8-0.5-1.9-2-2.1-2.4c-0.2-0.4-0.2-0.5-0.3-0.7c-0.1-0.4-0.5-0.3-0.6,0c-0.7,2-0.2,4.2,1.4,5.8c1.7,1.7,4.1,2.1,6.2,1.3l8.7,8.7
		c1,1,2.6,1,3.6,0c1-1,1-2.6,0-3.6L51.4,81.6z M59.3,93c-0.5,0.5-1.2,0.5-1.6,0c-0.5-0.5-0.5-1.2,0-1.6c0.5-0.5,1.2-0.5,1.6,0
		C59.8,91.8,59.8,92.5,59.3,93z"/>
	<path id="XMLID_34_" class="st2" d="M70.5,74.7c-0.6,0-1-0.5-1-1c0-0.2,0.1-0.4,0.2-0.6C69.4,73.1,69.2,73,69,73
		c-1,0-1.9,0.8-1.9,1.7c0,0.9,0.8,1.7,1.9,1.7c1,0,1.9-0.8,1.9-1.7c0,0,0-0.1,0-0.1C70.7,74.7,70.6,74.7,70.5,74.7z"/>
	<path id="XMLID_31_" class="st2" d="M90.4,78.1c-0.1-0.3-0.5-0.4-0.6,0c-0.1,0.3-0.1,0.3-0.3,0.7c-0.2,0.4-1.2,1.9-2.1,2.4
		c-0.8,0.5-2.9,0.7-3.9-0.3c0,0,0,0,0,0c0,0,0,0-0.1,0c-1-1-0.8-3.1-0.3-3.9c0.5-0.8,2-1.9,2.4-2.1c0.4-0.2,0.5-0.2,0.7-0.3
		c0.4-0.1,0.3-0.5,0-0.6c-2-0.7-4.2-0.2-5.8,1.4c-1.6,1.6-2.1,4-1.3,6.1l-8.8,8.8c-1,1-1,2.6,0,3.6c1,1,2.6,1,3.6,0l8.7-8.7
		c2.1,0.8,4.5,0.4,6.2-1.3C90.6,82.3,91.1,80.1,90.4,78.1z M73,93c-0.5,0.5-1.2,0.5-1.6,0c-0.5-0.5-0.5-1.2,0-1.6
		c0.5-0.5,1.2-0.5,1.6,0C73.5,91.8,73.5,92.5,73,93z"/>
	<path id="XMLID_28_" class="st2" d="M78.1,67.9c0-0.5-0.2-0.7-0.7-0.7c-0.1,0-0.4,0-1,0c0-0.4-0.1-0.8-0.1-1.2c0-3.7-2.5-7-5.4-9.1
		c0,0.1,0,0.2,0,0.2c0,0.3,0,0.6,0,0.9c0,0.3-0.1,0.6-0.1,0.9c-0.1,0.6-0.2,1.1-0.3,1.6c-0.1,0.5-0.2,1-0.4,1.5
		c-0.1,0.5-0.3,0.9-0.5,1.3c-0.3,0.8-0.6,1.5-0.9,1.9c-0.3,0.4-0.4,0.7-0.4,0.7s0-0.1,0-0.2c0-0.1,0-0.3,0-0.6c0-0.5,0.1-1.2,0.1-2
		c0.1-0.8,0.1-1.8,0.2-2.8c0-0.5,0.1-1,0.1-1.6c0-0.3,0-0.5,0-0.8c0-0.3,0-0.5,0-0.8c0-0.5,0-0.9,0-1.4c-1.2-0.6-2.4-0.9-3.5-0.9
		c-1.1,0-2.3,0.4-3.5,0.9c0,0.5,0,0.9,0,1.4c0,0.3,0,0.5,0,0.8c0,0.3,0,0.5,0,0.8c0,0.5,0.1,1.1,0.1,1.6c0.1,1,0.1,2,0.2,2.8
		c0.1,0.8,0.1,1.5,0.1,2c0,0.2,0,0.4,0,0.6c0,0.1,0,0.2,0,0.2s-0.2-0.2-0.4-0.7c-0.3-0.4-0.6-1.1-0.9-1.9c-0.2-0.4-0.3-0.8-0.5-1.3
		c-0.1-0.5-0.3-1-0.4-1.5C60.2,60,60,59.5,60,58.9c0-0.3-0.1-0.6-0.1-0.9c0-0.3,0-0.6,0-0.9c0-0.1,0-0.2,0-0.2
		c-2.9,2-5.4,5.4-5.4,9.1c0,0.4,0,0.8-0.1,1.2c-0.6,0-1,0-1,0c-0.5,0-0.7,0.2-0.7,0.7c0,0.5,0,3.1,0,3.1h1.5c0,0.3,0,0.6,0,0.9
		c0,7.2,5,12.9,11.3,12.9c0,0,0,0,0,0c0,0,0,0,0,0c6.3,0,11.3-5.7,11.3-12.9c0-0.3,0-0.6,0-0.9h1.5C78.1,71.1,78.1,68.4,78.1,67.9z
		 M65.4,83.7C65.4,83.7,65.4,83.7,65.4,83.7C65.4,83.7,65.4,83.7,65.4,83.7c-5.7,0-10.1-5.1-10.1-11.7c0-0.3,0-0.6,0-0.9h10h10
		c0,0.3,0,0.6,0,0.9C75.5,78.6,71,83.7,65.4,83.7z"/>
</g>
</svg>
