<!-- Generator: Adobe Illustrator 19.0.0, SVG Export Plug-In  -->
<svg version="1.0"
	 xmlns="http://www.w3.org/2000/svg" xmlns:xlink="http://www.w3.org/1999/xlink" xmlns:a="http://ns.adobe.com/AdobeSVGViewerExtensions/3.0/"
	 x="0px" y="0px" width="30.4px" height="35.7px" viewBox="0 0 30.4 35.7" style="enable-background:new 0 0 30.4 35.7;"
	 xml:space="preserve">
<style type="text/css">
	.st0{fill:#082158;stroke:#082158;stroke-miterlimit:10;}
</style>
<defs>
</defs>
<g id="XMLID_15_">
	<path id="XMLID_22_" class="st0" d="M28.5,18.1L27.9,6.2h-3.1L24,18.1h-1.9l0-2.9l-5,2.7l0-2.9L12,17.7v-2.5l-5,2.7V15l-6.4,3.4
		v16.7h16.8v-4.6H26v4.6h3.8V18.1H28.5z M7.3,23.6H2.9v-2.9h4.4V23.6z M13.8,23.6H9.4v-2.9h4.4V23.6z M20.3,23.6h-4.4v-2.9h4.4V23.6
		z M26.8,23.6h-4.4v-2.9h4.4V23.6z M26.8,23.6"/>
	<path id="XMLID_19_" class="st0" d="M16.8,5c-0.3,0-0.7-0.1-1-0.1c-1.2-0.3-2.1-0.8-2.1-0.8s0.1,0.2,0.4,0.5c0.3,0.3,0.7,0.7,1.4,1
		c0.3,0.2,0.7,0.3,1.1,0.4c0.4,0.1,0.9,0.2,1.4,0.1c1-0.1,2-0.6,2.7-1.4C21,4.5,21.3,4,21.6,3.9c0.3-0.2,0.6-0.4,0.9-0.5
		c0.6-0.3,1.3-0.2,1.9-0.1c0.6,0.2,1.1,0.4,1.5,0.6c0.3,0.2,0.5,0.3,0.5,0.3S26.3,3.9,26,3.6c-0.3-0.3-0.7-0.7-1.3-1.1
		c-0.3-0.2-0.7-0.3-1.2-0.4C23.1,2,22.6,2,22.1,2.1c-0.2,0.1-0.5,0.1-0.7,0.3c-0.2,0.1-0.5,0.2-0.7,0.4c-0.5,0.4-0.7,0.6-1,1
		c-0.5,0.6-1.1,1-1.8,1.1C17.5,5,17.2,5,16.8,5L16.8,5z M16.8,5"/>
	<path id="XMLID_16_" class="st0" d="M7.2,4.1c0.3,0.2,0.7,0.3,1.1,0.4c0.4,0.1,0.9,0.2,1.4,0.1c1-0.1,2-0.7,2.7-1.4
		C12.6,3,13,2.5,13.2,2.3c0.2-0.2,0.6-0.4,0.9-0.5c0.6-0.3,1.3-0.2,1.9-0.1c0.6,0.1,1.1,0.4,1.5,0.6C17.8,2.4,18,2.6,18,2.6
		S17.9,2.4,17.7,2C17.4,1.7,17,1.3,16.3,1c-0.3-0.2-0.7-0.3-1.2-0.4c-0.4-0.1-0.9-0.1-1.4,0.1c-0.2,0.1-0.5,0.1-0.7,0.3
		c-0.2,0.1-0.5,0.2-0.7,0.4c-0.5,0.4-0.7,0.6-1,1c-0.5,0.6-1.2,1-1.8,1.1c-0.3,0.1-0.7,0.1-1,0.1c-0.3,0-0.7-0.1-1-0.2
		C6.2,3,5.4,2.6,5.4,2.6s0.1,0.2,0.4,0.5C6.1,3.4,6.5,3.7,7.2,4.1L7.2,4.1z M7.2,4.1"/>
</g>
</svg>
